<?xml version="1.0" encoding="utf-8" standalone="no"?><!DOCTYPE svg PUBLIC "-//W3C//DTD SVG 20010904//EN" "http://www.w3.org/TR/2001/REC-SVG-20010904/DTD/svg10.dtd"><svg xmlns="http://www.w3.org/2000/svg" width="449" height="328" xmlns:xlink="http://www.w3.org/1999/xlink"><source><![CDATA[Andrew->China: Says Hello
Note right of China: China thinks\nabout it
China-->Andrew: How are you?
Andrew->>China: I am good thanks!]]></source><desc></desc><defs><marker viewBox="0 0 5 5" markerWidth="5" markerHeight="5" orient="auto" refX="5" refY="2.5" id="markerArrowBlock"><path d="M 0 0 L 5 2.5 L 0 5 z"></path></marker><marker viewBox="0 0 9.6 16" markerWidth="4" markerHeight="16" orient="auto" refX="9.6" refY="8" id="markerArrowOpen"><path d="M 9.6,8 1.92,16 0,13.7 5.76,8 0,2.286 1.92,0 9.6,8 z"></path></marker></defs><g class="title"></g><g class="actor"><path d="M10,20C77.3,23.5 65.4,16.5 98.5,20.0C97.0,51.0 100.0,26.0 98.5,57.3C63.3,60.9 63.5,53.8 10.0,57.3C11.5,43.9 8.5,29.0 10.0,20.0" stroke="#000000" fill="#ffffff" style="stroke-width: 2;"></path><text x="20" y="44" style="font-size: 16px; font-family: danielbd;"><tspan x="20">Andrew</tspan></text></g><g class="actor"><path d="M10,271.20000648498535C45.9,267.7 31.2,274.7 98.5,271.2C97.0,283.3 100.0,287.4 98.5,308.5C60.5,312.1 60.9,305.0 10.0,308.5C8.5,296.9 11.5,302.6 10.0,271.2" stroke="#000000" fill="#ffffff" style="stroke-width: 2;"></path><text x="20" y="295.20000648498535" style="font-size: 16px; font-family: danielbd;"><tspan x="20">Andrew</tspan></text></g><path d="M54.3,57.3C45.7,219.9 62.8,112.4 54.3,271.2" stroke="#000000" fill="none" style="stroke-width: 2;"></path><g class="actor"><path d="M193.15235137939453,20C218.9,22.8 208.6,17.2 262.0,20.0C260.5,42.6 263.5,38.1 262.0,57.3C211.7,54.6 208.8,60.1 193.2,57.3C194.6,37.1 191.7,42.2 193.2,20.0" stroke="#000000" fill="#ffffff" style="stroke-width: 2;"></path><text x="203.15235137939453" y="44" style="font-size: 16px; font-family: danielbd;"><tspan x="203.15235137939453">China</tspan></text></g><g class="actor"><path d="M193.15235137939453,271.20000648498535C209.7,268.4 235.0,274.0 262.0,271.2C263.5,301.6 260.5,285.0 262.0,308.5C229.1,311.3 251.0,305.8 193.2,308.5C194.6,285.0 191.7,277.2 193.2,271.2" stroke="#000000" fill="#ffffff" style="stroke-width: 2;"></path><text x="203.15235137939453" y="295.20000648498535" style="font-size: 16px; font-family: danielbd;"><tspan x="203.15235137939453">China</tspan></text></g><path d="M227.6,57.3C219.0,216.3 236.1,219.9 227.6,271.2" stroke="#000000" fill="none" style="stroke-width: 2;"></path><g class="signal"><text x="98.67578381299973" y="85" style="font-size: 16px; font-family: danielbd;"><tspan x="98.00911712646484">Says Hello</tspan></text><path d="M54.3,100.0C95.9,93.1 186.0,106.9 227.6,100.0" stroke="#000000" fill="none" style="stroke-width: 2; marker-end: url(&quot;#markerArrowBlock&quot;);"></path></g><g class="note"><path d="M247.58985137939453,120.00000190734863C266.4,115.3 321.8,124.7 365.4,120.0C367.3,159.1 363.5,155.4 365.4,166.5C266.4,161.8 346.5,171.2 247.6,166.5C245.7,153.8 249.5,146.9 247.6,120.0" stroke="#000000" fill="#ffffff" style="stroke-width: 2;"></path><text x="252.58985137939453" y="139.00000190734863" style="font-size: 16px; font-family: danielbd;"><tspan x="252.58985137939453">China thinks</tspan><tspan dy="1.2em" x="252.58985137939453">about it</tspan></text></g><g class="signal"><text x="80.89714050292969" y="193.86667251586914" style="font-size: 16px; font-family: danielbd;"><tspan x="80.89714050292969">How are you?</tspan></text><path d="M227.6,208.5C199.9,215.5 131.1,201.6 54.3,208.5" stroke="#000000" fill="none" style="stroke-width: 2; stroke-dasharray: 6, 2; marker-end: url(&quot;#markerArrowBlock&quot;);"></path></g><g class="signal"><text x="64.26692962646484" y="236.20000457763672" style="font-size: 16px; font-family: danielbd;"><tspan x="64.26692962646484">I am good thanks!</tspan></text><path d="M54.3,251.2C199.9,244.3 134.2,258.1 227.6,251.2" stroke="#000000" fill="none" style="stroke-width: 2; marker-end: url(&quot;#markerArrowOpen&quot;);"></path></g></svg>